<svg width="16" height="11" viewBox="0 0 16 11" fill="none" xmlns="http://www.w3.org/2000/svg">
<path id="Vector" d="M11.0712 0.922821C10.9908 0.855113 10.8892 0.821259 10.7665 0.821259C10.6184 0.821259 10.4914 0.880503 10.3856 0.998993L4.19672 8.63522L1.79096 6.36276C1.74864 6.31621 1.69786 6.28024 1.63861 6.25485C1.57937 6.22946 1.51801 6.21677 1.45453 6.21677C1.32335 6.21677 1.20909 6.26543 1.11176 6.36276L0.80072 6.6738C0.707621 6.76267 0.661072 6.87481 0.661072 7.01022C0.661072 7.14564 0.707621 7.2599 0.80072 7.353L3.79682 10.3491C3.94493 10.4845 4.11208 10.5522 4.29828 10.5522C4.40408 10.5522 4.50564 10.529 4.60297 10.4824C4.7003 10.4359 4.7807 10.3703 4.84418 10.2856L11.4901 1.86862C11.5621 1.77129 11.598 1.67185 11.598 1.57028C11.598 1.41371 11.5346 1.28887 11.4076 1.19577L11.0712 0.922821ZM8.62104 8.59714C8.43061 8.47865 8.24864 8.36016 8.07514 8.24167C7.99473 8.16127 7.88894 8.12106 7.75775 8.12106C7.60964 8.12106 7.48904 8.17396 7.39594 8.27976L7.10395 8.60983C7.01931 8.70716 6.97699 8.81507 6.97699 8.93356C6.97699 9.06475 7.02354 9.17901 7.11664 9.27634L8.19574 10.3491C8.33116 10.4845 8.4962 10.5522 8.69086 10.5522C8.79665 10.5522 8.89822 10.529 8.99555 10.4824C9.09288 10.4359 9.1754 10.3703 9.24311 10.2856L15.8637 1.89401C15.9356 1.80938 15.9716 1.70993 15.9716 1.59567C15.9716 1.45179 15.9123 1.32696 15.7938 1.22116L15.4384 0.948212C15.358 0.880503 15.2585 0.846649 15.14 0.846649C14.9962 0.846649 14.8713 0.905894 14.7655 1.02438L8.62104 8.59714Z" fill="#53BDEB"/>
</svg>
